<mxfile host="app.diagrams.net" modified="2024-03-11T12:15:26.671Z" agent="Mozilla/5.0 (Windows NT 10.0; Win64; x64) AppleWebKit/537.36 (KHTML, like Gecko) Chrome/122.0.0.0 Safari/537.36" etag="kRT4glr8HoftPVfsNMlg" version="24.0.1" type="device">
  <diagram name="Strona-1" id="CRoOHCRp7PV3VWZ4VVK-">
    <mxGraphModel dx="2206" dy="2317" grid="1" gridSize="10" guides="1" tooltips="1" connect="1" arrows="1" fold="1" page="1" pageScale="1" pageWidth="827" pageHeight="1169" math="0" shadow="0">
      <root>
        <mxCell id="0" />
        <mxCell id="1" parent="0" />
        <mxCell id="mRrVycRDnN2cjoP5IXHZ-1" value="Сотрудник" style="shape=umlActor;verticalLabelPosition=bottom;verticalAlign=top;html=1;outlineConnect=0;" parent="1" vertex="1">
          <mxGeometry x="80" y="300" width="30" height="60" as="geometry" />
        </mxCell>
        <mxCell id="mRrVycRDnN2cjoP5IXHZ-5" value="Занести данные о объекте базу данных системы складского учета" style="ellipse;whiteSpace=wrap;html=1;" parent="1" vertex="1">
          <mxGeometry x="370" y="150" width="140" height="70" as="geometry" />
        </mxCell>
        <mxCell id="mRrVycRDnN2cjoP5IXHZ-6" value="Изменить данные объекта в базе данных системы складского учета" style="ellipse;whiteSpace=wrap;html=1;" parent="1" vertex="1">
          <mxGeometry x="130" y="150" width="140" height="70" as="geometry" />
        </mxCell>
        <mxCell id="mRrVycRDnN2cjoP5IXHZ-7" value="Авторизация в системе" style="ellipse;whiteSpace=wrap;html=1;" parent="1" vertex="1">
          <mxGeometry x="180" y="280" width="140" height="70" as="geometry" />
        </mxCell>
        <mxCell id="mRrVycRDnN2cjoP5IXHZ-8" value="Глава организации" style="shape=umlActor;verticalLabelPosition=bottom;verticalAlign=top;html=1;outlineConnect=0;" parent="1" vertex="1">
          <mxGeometry x="80" y="460" width="30" height="60" as="geometry" />
        </mxCell>
        <mxCell id="mRrVycRDnN2cjoP5IXHZ-10" value="Поставщик" style="shape=umlActor;verticalLabelPosition=bottom;verticalAlign=top;html=1;outlineConnect=0;" parent="1" vertex="1">
          <mxGeometry x="425" y="530" width="30" height="60" as="geometry" />
        </mxCell>
        <mxCell id="mRrVycRDnN2cjoP5IXHZ-11" value="Оформить заказ у поставщика" style="ellipse;whiteSpace=wrap;html=1;" parent="1" vertex="1">
          <mxGeometry x="180" y="440" width="140" height="70" as="geometry" />
        </mxCell>
        <mxCell id="mRrVycRDnN2cjoP5IXHZ-12" value="Выписать счет на заказ" style="ellipse;whiteSpace=wrap;html=1;" parent="1" vertex="1">
          <mxGeometry x="370" y="390" width="140" height="70" as="geometry" />
        </mxCell>
        <mxCell id="mRrVycRDnN2cjoP5IXHZ-13" value="Привезти заказ на склад" style="ellipse;whiteSpace=wrap;html=1;" parent="1" vertex="1">
          <mxGeometry x="560" y="390" width="140" height="70" as="geometry" />
        </mxCell>
        <mxCell id="mRrVycRDnN2cjoP5IXHZ-15" value="" style="endArrow=none;html=1;rounded=0;exitX=1;exitY=0.3333333333333333;exitDx=0;exitDy=0;exitPerimeter=0;entryX=0;entryY=0.5;entryDx=0;entryDy=0;" parent="1" source="mRrVycRDnN2cjoP5IXHZ-8" target="mRrVycRDnN2cjoP5IXHZ-7" edge="1">
          <mxGeometry width="50" height="50" relative="1" as="geometry">
            <mxPoint x="250" y="460" as="sourcePoint" />
            <mxPoint x="300" y="410" as="targetPoint" />
          </mxGeometry>
        </mxCell>
        <mxCell id="mRrVycRDnN2cjoP5IXHZ-16" value="" style="endArrow=none;html=1;rounded=0;entryX=1;entryY=0.3333333333333333;entryDx=0;entryDy=0;entryPerimeter=0;exitX=0;exitY=0.5;exitDx=0;exitDy=0;" parent="1" source="mRrVycRDnN2cjoP5IXHZ-7" target="mRrVycRDnN2cjoP5IXHZ-1" edge="1">
          <mxGeometry width="50" height="50" relative="1" as="geometry">
            <mxPoint x="250" y="460" as="sourcePoint" />
            <mxPoint x="300" y="410" as="targetPoint" />
          </mxGeometry>
        </mxCell>
        <mxCell id="mRrVycRDnN2cjoP5IXHZ-17" value="" style="endArrow=none;html=1;startArrow=none;startFill=0;rounded=0;exitX=0.5;exitY=0;exitDx=0;exitDy=0;exitPerimeter=0;entryX=0.5;entryY=1;entryDx=0;entryDy=0;endFill=0;" parent="1" source="mRrVycRDnN2cjoP5IXHZ-10" target="mRrVycRDnN2cjoP5IXHZ-12" edge="1">
          <mxGeometry relative="1" as="geometry">
            <mxPoint x="360" y="610" as="sourcePoint" />
            <mxPoint x="520" y="610" as="targetPoint" />
          </mxGeometry>
        </mxCell>
        <mxCell id="mRrVycRDnN2cjoP5IXHZ-18" value="1" style="edgeLabel;resizable=0;html=1;align=left;verticalAlign=top;" parent="mRrVycRDnN2cjoP5IXHZ-17" connectable="0" vertex="1">
          <mxGeometry x="-1" relative="1" as="geometry" />
        </mxCell>
        <mxCell id="mRrVycRDnN2cjoP5IXHZ-19" value="*" style="edgeLabel;resizable=0;html=1;align=right;verticalAlign=top;" parent="mRrVycRDnN2cjoP5IXHZ-17" connectable="0" vertex="1">
          <mxGeometry x="1" relative="1" as="geometry" />
        </mxCell>
        <mxCell id="mRrVycRDnN2cjoP5IXHZ-23" value="include" style="endArrow=open;endSize=12;dashed=1;html=1;rounded=0;entryX=0;entryY=0.5;entryDx=0;entryDy=0;exitX=1;exitY=0.5;exitDx=0;exitDy=0;" parent="1" source="mRrVycRDnN2cjoP5IXHZ-11" target="mRrVycRDnN2cjoP5IXHZ-12" edge="1">
          <mxGeometry width="160" relative="1" as="geometry">
            <mxPoint x="200" y="440" as="sourcePoint" />
            <mxPoint x="360" y="440" as="targetPoint" />
          </mxGeometry>
        </mxCell>
        <mxCell id="mRrVycRDnN2cjoP5IXHZ-24" value="include" style="endArrow=open;endSize=12;dashed=1;html=1;rounded=0;entryX=0.5;entryY=0;entryDx=0;entryDy=0;exitX=0.5;exitY=1;exitDx=0;exitDy=0;" parent="1" source="mRrVycRDnN2cjoP5IXHZ-5" target="mRrVycRDnN2cjoP5IXHZ-13" edge="1">
          <mxGeometry width="160" relative="1" as="geometry">
            <mxPoint x="330" y="435" as="sourcePoint" />
            <mxPoint x="380" y="435" as="targetPoint" />
          </mxGeometry>
        </mxCell>
        <mxCell id="mRrVycRDnN2cjoP5IXHZ-25" value="" style="endArrow=none;html=1;startArrow=none;startFill=0;rounded=0;exitX=1;exitY=0.3333333333333333;exitDx=0;exitDy=0;exitPerimeter=0;entryX=0;entryY=0.5;entryDx=0;entryDy=0;endFill=0;" parent="1" source="mRrVycRDnN2cjoP5IXHZ-8" target="mRrVycRDnN2cjoP5IXHZ-11" edge="1">
          <mxGeometry relative="1" as="geometry">
            <mxPoint x="295" y="610" as="sourcePoint" />
            <mxPoint x="450" y="470" as="targetPoint" />
          </mxGeometry>
        </mxCell>
        <mxCell id="mRrVycRDnN2cjoP5IXHZ-26" value="1" style="edgeLabel;resizable=0;html=1;align=left;verticalAlign=top;" parent="mRrVycRDnN2cjoP5IXHZ-25" connectable="0" vertex="1">
          <mxGeometry x="-1" relative="1" as="geometry" />
        </mxCell>
        <mxCell id="mRrVycRDnN2cjoP5IXHZ-27" value="*" style="edgeLabel;resizable=0;html=1;align=right;verticalAlign=top;" parent="mRrVycRDnN2cjoP5IXHZ-25" connectable="0" vertex="1">
          <mxGeometry x="1" relative="1" as="geometry" />
        </mxCell>
        <mxCell id="mRrVycRDnN2cjoP5IXHZ-28" value="" style="endArrow=none;html=1;startArrow=none;startFill=0;rounded=0;exitX=0.5;exitY=0;exitDx=0;exitDy=0;exitPerimeter=0;entryX=0;entryY=0.5;entryDx=0;entryDy=0;endFill=0;" parent="1" source="mRrVycRDnN2cjoP5IXHZ-1" target="mRrVycRDnN2cjoP5IXHZ-6" edge="1">
          <mxGeometry relative="1" as="geometry">
            <mxPoint x="120" y="490" as="sourcePoint" />
            <mxPoint x="190" y="435" as="targetPoint" />
          </mxGeometry>
        </mxCell>
        <mxCell id="mRrVycRDnN2cjoP5IXHZ-29" value="1" style="edgeLabel;resizable=0;html=1;align=left;verticalAlign=top;" parent="mRrVycRDnN2cjoP5IXHZ-28" connectable="0" vertex="1">
          <mxGeometry x="-1" relative="1" as="geometry" />
        </mxCell>
        <mxCell id="mRrVycRDnN2cjoP5IXHZ-30" value="*" style="edgeLabel;resizable=0;html=1;align=right;verticalAlign=top;" parent="mRrVycRDnN2cjoP5IXHZ-28" connectable="0" vertex="1">
          <mxGeometry x="1" relative="1" as="geometry" />
        </mxCell>
        <mxCell id="mRrVycRDnN2cjoP5IXHZ-31" value="" style="endArrow=none;html=1;startArrow=none;startFill=0;rounded=0;exitX=0.5;exitY=0;exitDx=0;exitDy=0;exitPerimeter=0;entryX=0;entryY=0.5;entryDx=0;entryDy=0;endFill=0;" parent="1" source="mRrVycRDnN2cjoP5IXHZ-1" target="mRrVycRDnN2cjoP5IXHZ-5" edge="1">
          <mxGeometry relative="1" as="geometry">
            <mxPoint x="105" y="310" as="sourcePoint" />
            <mxPoint x="220" y="165" as="targetPoint" />
          </mxGeometry>
        </mxCell>
        <mxCell id="mRrVycRDnN2cjoP5IXHZ-32" value="1" style="edgeLabel;resizable=0;html=1;align=left;verticalAlign=top;" parent="mRrVycRDnN2cjoP5IXHZ-31" connectable="0" vertex="1">
          <mxGeometry x="-1" relative="1" as="geometry" />
        </mxCell>
        <mxCell id="mRrVycRDnN2cjoP5IXHZ-33" value="*" style="edgeLabel;resizable=0;html=1;align=right;verticalAlign=top;" parent="mRrVycRDnN2cjoP5IXHZ-31" connectable="0" vertex="1">
          <mxGeometry x="1" relative="1" as="geometry" />
        </mxCell>
        <mxCell id="mRrVycRDnN2cjoP5IXHZ-35" value="Транспортная компания&lt;br&gt;" style="shape=umlActor;verticalLabelPosition=bottom;verticalAlign=top;html=1;" parent="1" vertex="1">
          <mxGeometry x="580" y="660" width="30" height="60" as="geometry" />
        </mxCell>
        <mxCell id="mRrVycRDnN2cjoP5IXHZ-38" value="" style="endArrow=none;html=1;startArrow=none;startFill=0;rounded=0;exitX=0.5;exitY=0;exitDx=0;exitDy=0;exitPerimeter=0;entryX=0.5;entryY=1;entryDx=0;entryDy=0;endFill=0;" parent="1" source="mRrVycRDnN2cjoP5IXHZ-35" target="mRrVycRDnN2cjoP5IXHZ-13" edge="1">
          <mxGeometry relative="1" as="geometry">
            <mxPoint x="610" y="630" as="sourcePoint" />
            <mxPoint x="765" y="490" as="targetPoint" />
          </mxGeometry>
        </mxCell>
        <mxCell id="mRrVycRDnN2cjoP5IXHZ-39" value="1" style="edgeLabel;resizable=0;html=1;align=left;verticalAlign=top;" parent="mRrVycRDnN2cjoP5IXHZ-38" connectable="0" vertex="1">
          <mxGeometry x="-1" relative="1" as="geometry" />
        </mxCell>
        <mxCell id="mRrVycRDnN2cjoP5IXHZ-40" value="*" style="edgeLabel;resizable=0;html=1;align=right;verticalAlign=top;" parent="mRrVycRDnN2cjoP5IXHZ-38" connectable="0" vertex="1">
          <mxGeometry x="1" relative="1" as="geometry" />
        </mxCell>
        <mxCell id="mRrVycRDnN2cjoP5IXHZ-41" value="Оплатить счет заказа" style="ellipse;whiteSpace=wrap;html=1;" parent="1" vertex="1">
          <mxGeometry x="370" y="270" width="140" height="70" as="geometry" />
        </mxCell>
        <mxCell id="mRrVycRDnN2cjoP5IXHZ-42" value="extend" style="endArrow=none;endSize=12;dashed=1;html=1;rounded=0;entryX=0.5;entryY=1;entryDx=0;entryDy=0;exitX=0.5;exitY=0;exitDx=0;exitDy=0;startArrow=open;startFill=0;endFill=0;" parent="1" source="mRrVycRDnN2cjoP5IXHZ-12" target="mRrVycRDnN2cjoP5IXHZ-41" edge="1">
          <mxGeometry width="160" relative="1" as="geometry">
            <mxPoint x="340" y="495" as="sourcePoint" />
            <mxPoint x="380" y="435" as="targetPoint" />
          </mxGeometry>
        </mxCell>
        <mxCell id="mRrVycRDnN2cjoP5IXHZ-44" value="" style="endArrow=none;html=1;startArrow=none;startFill=0;rounded=0;exitX=1;exitY=0.3333333333333333;exitDx=0;exitDy=0;exitPerimeter=0;entryX=0;entryY=0.5;entryDx=0;entryDy=0;endFill=0;" parent="1" source="mRrVycRDnN2cjoP5IXHZ-8" target="mRrVycRDnN2cjoP5IXHZ-41" edge="1">
          <mxGeometry relative="1" as="geometry">
            <mxPoint x="120" y="490" as="sourcePoint" />
            <mxPoint x="200" y="495" as="targetPoint" />
          </mxGeometry>
        </mxCell>
        <mxCell id="mRrVycRDnN2cjoP5IXHZ-45" value="1" style="edgeLabel;resizable=0;html=1;align=left;verticalAlign=top;" parent="mRrVycRDnN2cjoP5IXHZ-44" connectable="0" vertex="1">
          <mxGeometry x="-1" relative="1" as="geometry" />
        </mxCell>
        <mxCell id="mRrVycRDnN2cjoP5IXHZ-46" value="*" style="edgeLabel;resizable=0;html=1;align=right;verticalAlign=top;" parent="mRrVycRDnN2cjoP5IXHZ-44" connectable="0" vertex="1">
          <mxGeometry x="1" relative="1" as="geometry" />
        </mxCell>
        <mxCell id="mRrVycRDnN2cjoP5IXHZ-47" value="include" style="endArrow=open;endSize=12;dashed=1;html=1;rounded=0;entryX=1;entryY=1;entryDx=0;entryDy=0;exitX=0;exitY=0;exitDx=0;exitDy=0;" parent="1" source="mRrVycRDnN2cjoP5IXHZ-13" target="mRrVycRDnN2cjoP5IXHZ-41" edge="1">
          <mxGeometry width="160" relative="1" as="geometry">
            <mxPoint x="330" y="485" as="sourcePoint" />
            <mxPoint x="380" y="435" as="targetPoint" />
          </mxGeometry>
        </mxCell>
        <mxCell id="mRrVycRDnN2cjoP5IXHZ-48" value="Вывезти товар из склада" style="ellipse;whiteSpace=wrap;html=1;" parent="1" vertex="1">
          <mxGeometry x="190" y="10" width="140" height="70" as="geometry" />
        </mxCell>
        <mxCell id="mRrVycRDnN2cjoP5IXHZ-49" value="Составление договора" style="ellipse;whiteSpace=wrap;html=1;" parent="1" vertex="1">
          <mxGeometry x="180" y="585" width="140" height="70" as="geometry" />
        </mxCell>
        <mxCell id="mRrVycRDnN2cjoP5IXHZ-59" value="include" style="endArrow=open;endSize=12;dashed=1;html=1;rounded=0;entryX=0.5;entryY=0;entryDx=0;entryDy=0;exitX=0.5;exitY=1;exitDx=0;exitDy=0;" parent="1" source="mRrVycRDnN2cjoP5IXHZ-11" target="mRrVycRDnN2cjoP5IXHZ-49" edge="1">
          <mxGeometry width="160" relative="1" as="geometry">
            <mxPoint x="330" y="485" as="sourcePoint" />
            <mxPoint x="380" y="435" as="targetPoint" />
          </mxGeometry>
        </mxCell>
        <mxCell id="mRrVycRDnN2cjoP5IXHZ-62" value="include" style="endArrow=open;endSize=12;dashed=1;html=1;rounded=0;entryX=0.5;entryY=0;entryDx=0;entryDy=0;exitX=0;exitY=1;exitDx=0;exitDy=0;" parent="1" source="mRrVycRDnN2cjoP5IXHZ-12" target="mRrVycRDnN2cjoP5IXHZ-49" edge="1">
          <mxGeometry width="160" relative="1" as="geometry">
            <mxPoint x="260" y="520" as="sourcePoint" />
            <mxPoint x="210" y="740" as="targetPoint" />
          </mxGeometry>
        </mxCell>
        <mxCell id="mRrVycRDnN2cjoP5IXHZ-63" value="Расторжение договора" style="ellipse;whiteSpace=wrap;html=1;" parent="1" vertex="1">
          <mxGeometry x="180" y="740" width="140" height="70" as="geometry" />
        </mxCell>
        <mxCell id="mRrVycRDnN2cjoP5IXHZ-73" value="include" style="endArrow=open;endSize=12;dashed=1;html=1;rounded=0;exitX=0;exitY=1;exitDx=0;exitDy=0;entryX=1;entryY=0;entryDx=0;entryDy=0;" parent="1" source="mRrVycRDnN2cjoP5IXHZ-5" target="mRrVycRDnN2cjoP5IXHZ-7" edge="1">
          <mxGeometry width="160" relative="1" as="geometry">
            <mxPoint x="330" y="485" as="sourcePoint" />
            <mxPoint x="350" y="240" as="targetPoint" />
          </mxGeometry>
        </mxCell>
        <mxCell id="mRrVycRDnN2cjoP5IXHZ-74" value="include" style="endArrow=open;endSize=12;dashed=1;html=1;rounded=0;exitX=0.5;exitY=1;exitDx=0;exitDy=0;entryX=0;entryY=0;entryDx=0;entryDy=0;" parent="1" source="mRrVycRDnN2cjoP5IXHZ-6" target="mRrVycRDnN2cjoP5IXHZ-7" edge="1">
          <mxGeometry width="160" relative="1" as="geometry">
            <mxPoint x="401" y="220" as="sourcePoint" />
            <mxPoint x="309" y="300" as="targetPoint" />
          </mxGeometry>
        </mxCell>
        <mxCell id="mRrVycRDnN2cjoP5IXHZ-75" value="include" style="endArrow=open;endSize=12;dashed=1;html=1;rounded=0;exitX=0.5;exitY=0;exitDx=0;exitDy=0;entryX=0.5;entryY=1;entryDx=0;entryDy=0;" parent="1" source="mRrVycRDnN2cjoP5IXHZ-6" target="mRrVycRDnN2cjoP5IXHZ-48" edge="1">
          <mxGeometry width="160" relative="1" as="geometry">
            <mxPoint x="210" y="230" as="sourcePoint" />
            <mxPoint x="211" y="300" as="targetPoint" />
          </mxGeometry>
        </mxCell>
        <mxCell id="mRrVycRDnN2cjoP5IXHZ-76" value="" style="endArrow=none;html=1;startArrow=none;startFill=0;rounded=0;exitX=0;exitY=0.3333333333333333;exitDx=0;exitDy=0;exitPerimeter=0;endFill=0;edgeStyle=orthogonalEdgeStyle;entryX=0.5;entryY=1;entryDx=0;entryDy=0;" parent="1" source="mRrVycRDnN2cjoP5IXHZ-1" target="mRrVycRDnN2cjoP5IXHZ-79" edge="1">
          <mxGeometry relative="1" as="geometry">
            <mxPoint x="105" y="310" as="sourcePoint" />
            <mxPoint x="80" y="40" as="targetPoint" />
          </mxGeometry>
        </mxCell>
        <mxCell id="mRrVycRDnN2cjoP5IXHZ-77" value="1" style="edgeLabel;resizable=0;html=1;align=left;verticalAlign=top;" parent="mRrVycRDnN2cjoP5IXHZ-76" connectable="0" vertex="1">
          <mxGeometry x="-1" relative="1" as="geometry" />
        </mxCell>
        <mxCell id="mRrVycRDnN2cjoP5IXHZ-78" value="*" style="edgeLabel;resizable=0;html=1;align=right;verticalAlign=top;" parent="mRrVycRDnN2cjoP5IXHZ-76" connectable="0" vertex="1">
          <mxGeometry x="1" relative="1" as="geometry" />
        </mxCell>
        <mxCell id="mRrVycRDnN2cjoP5IXHZ-79" value="Переместить своими силами в случае близкого расположения&lt;br&gt;другого склада" style="ellipse;whiteSpace=wrap;html=1;" parent="1" vertex="1">
          <mxGeometry x="70" y="-90" width="140" height="70" as="geometry" />
        </mxCell>
        <mxCell id="mRrVycRDnN2cjoP5IXHZ-80" value="" style="endArrow=none;html=1;startArrow=none;startFill=0;rounded=0;exitX=1;exitY=0.3333333333333333;exitDx=0;exitDy=0;exitPerimeter=0;endFill=0;edgeStyle=orthogonalEdgeStyle;entryX=1;entryY=0.5;entryDx=0;entryDy=0;" parent="1" source="mRrVycRDnN2cjoP5IXHZ-35" target="mRrVycRDnN2cjoP5IXHZ-88" edge="1">
          <mxGeometry relative="1" as="geometry">
            <mxPoint x="545" y="600" as="sourcePoint" />
            <mxPoint x="760" y="520" as="targetPoint" />
            <Array as="points">
              <mxPoint x="760" y="680" />
              <mxPoint x="760" y="-50" />
              <mxPoint x="425" y="-50" />
            </Array>
          </mxGeometry>
        </mxCell>
        <mxCell id="mRrVycRDnN2cjoP5IXHZ-81" value="1" style="edgeLabel;resizable=0;html=1;align=left;verticalAlign=top;" parent="mRrVycRDnN2cjoP5IXHZ-80" connectable="0" vertex="1">
          <mxGeometry x="-1" relative="1" as="geometry" />
        </mxCell>
        <mxCell id="mRrVycRDnN2cjoP5IXHZ-82" value="*" style="edgeLabel;resizable=0;html=1;align=right;verticalAlign=top;" parent="mRrVycRDnN2cjoP5IXHZ-80" connectable="0" vertex="1">
          <mxGeometry x="1" relative="1" as="geometry" />
        </mxCell>
        <mxCell id="mRrVycRDnN2cjoP5IXHZ-83" value="include" style="endArrow=open;endSize=12;dashed=1;html=1;rounded=0;entryX=0.5;entryY=1;entryDx=0;entryDy=0;exitX=0.5;exitY=0;exitDx=0;exitDy=0;" parent="1" source="mRrVycRDnN2cjoP5IXHZ-63" target="mRrVycRDnN2cjoP5IXHZ-49" edge="1">
          <mxGeometry width="160" relative="1" as="geometry">
            <mxPoint x="260" y="520" as="sourcePoint" />
            <mxPoint x="260" y="650" as="targetPoint" />
          </mxGeometry>
        </mxCell>
        <mxCell id="mRrVycRDnN2cjoP5IXHZ-84" value="extend" style="endArrow=open;endSize=12;dashed=1;html=1;rounded=0;entryX=0.5;entryY=0;entryDx=0;entryDy=0;exitX=1;exitY=0.5;exitDx=0;exitDy=0;" parent="1" source="mRrVycRDnN2cjoP5IXHZ-79" target="mRrVycRDnN2cjoP5IXHZ-48" edge="1">
          <mxGeometry width="160" relative="1" as="geometry">
            <mxPoint x="230" y="-140" as="sourcePoint" />
            <mxPoint x="270" y="90" as="targetPoint" />
          </mxGeometry>
        </mxCell>
        <mxCell id="mRrVycRDnN2cjoP5IXHZ-88" value="Переместить силами транспортной компании" style="ellipse;whiteSpace=wrap;html=1;" parent="1" vertex="1">
          <mxGeometry x="285" y="-90" width="140" height="70" as="geometry" />
        </mxCell>
        <mxCell id="mRrVycRDnN2cjoP5IXHZ-89" value="extend" style="endArrow=open;endSize=12;dashed=1;html=1;rounded=0;entryX=0.5;entryY=0;entryDx=0;entryDy=0;exitX=0.5;exitY=1;exitDx=0;exitDy=0;" parent="1" source="mRrVycRDnN2cjoP5IXHZ-88" target="mRrVycRDnN2cjoP5IXHZ-48" edge="1">
          <mxGeometry width="160" relative="1" as="geometry">
            <mxPoint x="220" y="-45" as="sourcePoint" />
            <mxPoint x="270" y="20" as="targetPoint" />
          </mxGeometry>
        </mxCell>
        <mxCell id="mRrVycRDnN2cjoP5IXHZ-91" value="include" style="endArrow=open;endSize=12;dashed=1;html=1;rounded=0;entryX=0;entryY=1;entryDx=0;entryDy=0;exitX=0.5;exitY=0;exitDx=0;exitDy=0;" parent="1" source="mRrVycRDnN2cjoP5IXHZ-11" target="mRrVycRDnN2cjoP5IXHZ-41" edge="1">
          <mxGeometry width="160" relative="1" as="geometry">
            <mxPoint x="330" y="485" as="sourcePoint" />
            <mxPoint x="380" y="435" as="targetPoint" />
          </mxGeometry>
        </mxCell>
        <mxCell id="mRrVycRDnN2cjoP5IXHZ-93" value="Юридическое лицо" style="shape=umlActor;verticalLabelPosition=bottom;verticalAlign=top;html=1;" parent="1" vertex="1">
          <mxGeometry x="290" y="830" width="30" height="60" as="geometry" />
        </mxCell>
        <mxCell id="mRrVycRDnN2cjoP5IXHZ-94" value="" style="endArrow=block;endSize=16;endFill=0;html=1;rounded=0;exitX=1;exitY=0.3333333333333333;exitDx=0;exitDy=0;exitPerimeter=0;entryX=0;entryY=0.3333333333333333;entryDx=0;entryDy=0;entryPerimeter=0;edgeStyle=orthogonalEdgeStyle;" parent="1" source="mRrVycRDnN2cjoP5IXHZ-8" target="mRrVycRDnN2cjoP5IXHZ-93" edge="1">
          <mxGeometry width="160" relative="1" as="geometry">
            <mxPoint x="280" y="590" as="sourcePoint" />
            <mxPoint x="440" y="590" as="targetPoint" />
            <Array as="points">
              <mxPoint x="120" y="480" />
              <mxPoint x="120" y="850" />
            </Array>
          </mxGeometry>
        </mxCell>
        <mxCell id="mRrVycRDnN2cjoP5IXHZ-95" value="" style="endArrow=block;endSize=16;endFill=0;html=1;rounded=0;exitX=1;exitY=0.3333333333333333;exitDx=0;exitDy=0;exitPerimeter=0;entryX=1;entryY=0.3333333333333333;entryDx=0;entryDy=0;entryPerimeter=0;edgeStyle=orthogonalEdgeStyle;" parent="1" target="mRrVycRDnN2cjoP5IXHZ-93" edge="1">
          <mxGeometry width="160" relative="1" as="geometry">
            <mxPoint x="580" y="680" as="sourcePoint" />
            <mxPoint x="760" y="1050" as="targetPoint" />
            <Array as="points">
              <mxPoint x="580" y="850" />
            </Array>
          </mxGeometry>
        </mxCell>
        <mxCell id="mRrVycRDnN2cjoP5IXHZ-96" value="" style="endArrow=block;endSize=16;endFill=0;html=1;rounded=0;exitX=1;exitY=0.3333333333333333;exitDx=0;exitDy=0;exitPerimeter=0;entryX=0.5;entryY=0;entryDx=0;entryDy=0;entryPerimeter=0;edgeStyle=orthogonalEdgeStyle;" parent="1" source="mRrVycRDnN2cjoP5IXHZ-10" target="mRrVycRDnN2cjoP5IXHZ-93" edge="1">
          <mxGeometry width="160" relative="1" as="geometry">
            <mxPoint x="590" y="690" as="sourcePoint" />
            <mxPoint x="330" y="860" as="targetPoint" />
            <Array as="points">
              <mxPoint x="540" y="550" />
              <mxPoint x="540" y="830" />
            </Array>
          </mxGeometry>
        </mxCell>
        <mxCell id="mRrVycRDnN2cjoP5IXHZ-97" value="" style="endArrow=none;html=1;startArrow=none;startFill=0;rounded=0;exitX=0.5;exitY=0;exitDx=0;exitDy=0;exitPerimeter=0;entryX=0.5;entryY=1;entryDx=0;entryDy=0;endFill=0;edgeStyle=orthogonalEdgeStyle;" parent="1" source="mRrVycRDnN2cjoP5IXHZ-93" target="mRrVycRDnN2cjoP5IXHZ-63" edge="1">
          <mxGeometry relative="1" as="geometry">
            <mxPoint x="120" y="490" as="sourcePoint" />
            <mxPoint x="190" y="485" as="targetPoint" />
          </mxGeometry>
        </mxCell>
        <mxCell id="mRrVycRDnN2cjoP5IXHZ-98" value="1" style="edgeLabel;resizable=0;html=1;align=left;verticalAlign=top;" parent="mRrVycRDnN2cjoP5IXHZ-97" connectable="0" vertex="1">
          <mxGeometry x="-1" relative="1" as="geometry" />
        </mxCell>
        <mxCell id="mRrVycRDnN2cjoP5IXHZ-99" value="*" style="edgeLabel;resizable=0;html=1;align=right;verticalAlign=top;" parent="mRrVycRDnN2cjoP5IXHZ-97" connectable="0" vertex="1">
          <mxGeometry x="1" relative="1" as="geometry" />
        </mxCell>
        <mxCell id="mRrVycRDnN2cjoP5IXHZ-100" value="" style="endArrow=none;html=1;startArrow=none;startFill=0;rounded=0;exitX=0.5;exitY=0;exitDx=0;exitDy=0;exitPerimeter=0;entryX=1;entryY=1;entryDx=0;entryDy=0;endFill=0;edgeStyle=orthogonalEdgeStyle;" parent="1" source="mRrVycRDnN2cjoP5IXHZ-93" target="mRrVycRDnN2cjoP5IXHZ-49" edge="1">
          <mxGeometry relative="1" as="geometry">
            <mxPoint x="315" y="840" as="sourcePoint" />
            <mxPoint x="260" y="820" as="targetPoint" />
            <Array as="points">
              <mxPoint x="305" y="810" />
              <mxPoint x="350" y="810" />
              <mxPoint x="350" y="700" />
              <mxPoint x="300" y="700" />
            </Array>
          </mxGeometry>
        </mxCell>
        <mxCell id="mRrVycRDnN2cjoP5IXHZ-101" value="1" style="edgeLabel;resizable=0;html=1;align=left;verticalAlign=top;" parent="mRrVycRDnN2cjoP5IXHZ-100" connectable="0" vertex="1">
          <mxGeometry x="-1" relative="1" as="geometry" />
        </mxCell>
        <mxCell id="mRrVycRDnN2cjoP5IXHZ-102" value="*" style="edgeLabel;resizable=0;html=1;align=right;verticalAlign=top;" parent="mRrVycRDnN2cjoP5IXHZ-100" connectable="0" vertex="1">
          <mxGeometry x="1" relative="1" as="geometry" />
        </mxCell>
      </root>
    </mxGraphModel>
  </diagram>
</mxfile>
